<svg xmlns="http://www.w3.org/2000/svg" viewBox="0 0 128 128" width="128" height="128"><ellipse cx="64" cy="76.24" rx="52" ry="49.4" fill="#04060A" opacity=".5"></ellipse><circle cx="64" cy="64" r="52" fill="#2A3142"></circle><path d="M29.439999999999998 34.24 A48 48 0 0 1 73.6 18.400000000000006" fill="none" stroke="#4A5772" stroke-width="3" stroke-linecap="round" opacity=".5"></path><circle cx="64" cy="64" r="43" fill="#171C27"></circle><circle cx="64" cy="64" r="41" fill="#A87F52"></circle><path d="M52 101.6 A40 40 0 0 0 98 84" fill="none" stroke="#000" stroke-width="3" stroke-linecap="round" opacity=".18"></path><path d="M35.92 39.82 A39 39 0 0 1 71.8 26.950000000000003" fill="none" stroke="#FFF" stroke-width="2.5" stroke-linecap="round" opacity=".10"></path><ellipse cx="70" cy="72" rx="26" ry="19" fill="#8E6841" opacity=".6"></ellipse><g transform="rotate(10 42 52)"><path d="M37 56 L42 47 L47 56z" fill="#C79C68"></path></g><g transform="rotate(-20 58 44)"><path d="M53 48 L58 39 L63 48z" fill="#C79C68"></path></g><g transform="rotate(30 70 60)"><path d="M65 64 L70 55 L75 64z" fill="#C79C68"></path></g><g transform="rotate(-10 54 74)"><path d="M49 78 L54 69 L59 78z" fill="#C79C68"></path></g><g transform="rotate(20 78 74)"><path d="M73 78 L78 69 L83 78z" fill="#C79C68"></path></g><g transform="rotate(45 44 68)"><path d="M39 72 L44 63 L49 72z" fill="#C79C68"></path></g></svg>