<svg xmlns="http://www.w3.org/2000/svg" viewBox="0 0 128 128" width="128" height="128"><ellipse cx="64" cy="76.24" rx="52" ry="49.4" fill="#04060A" opacity=".5"></ellipse><circle cx="64" cy="64" r="52" fill="#2A3142"></circle><path d="M29.439999999999998 34.24 A48 48 0 0 1 73.6 18.400000000000006" fill="none" stroke="#4A5772" stroke-width="3" stroke-linecap="round" opacity=".5"></path><circle cx="64" cy="64" r="43" fill="#171C27"></circle><circle cx="64" cy="64" r="41" fill="#D6B47C"></circle><path d="M52 101.6 A40 40 0 0 0 98 84" fill="none" stroke="#000" stroke-width="3" stroke-linecap="round" opacity=".18"></path><path d="M35.92 39.82 A39 39 0 0 1 71.8 26.950000000000003" fill="none" stroke="#FFF" stroke-width="2.5" stroke-linecap="round" opacity=".10"></path><ellipse cx="70" cy="72" rx="26" ry="19" fill="#BD9A62" opacity=".5"></ellipse><g transform="rotate(0 44 50)"><ellipse cx="44" cy="50" rx="4.5" ry="2.2" fill="#EBD3A6" opacity=".9"></ellipse></g><g transform="rotate(23 58 46)"><ellipse cx="58" cy="46" rx="4.5" ry="2.2" fill="#EBD3A6" opacity=".9"></ellipse></g><g transform="rotate(46 70 56)"><ellipse cx="70" cy="56" rx="4.5" ry="2.2" fill="#EBD3A6" opacity=".9"></ellipse></g><g transform="rotate(69 52 70)"><ellipse cx="52" cy="70" rx="4.5" ry="2.2" fill="#EBD3A6" opacity=".9"></ellipse></g><g transform="rotate(92 76 72)"><ellipse cx="76" cy="72" rx="4.5" ry="2.2" fill="#EBD3A6" opacity=".9"></ellipse></g><g transform="rotate(115 62 64)"><ellipse cx="62" cy="64" rx="4.5" ry="2.2" fill="#EBD3A6" opacity=".9"></ellipse></g><g transform="rotate(138 46 64)"><ellipse cx="46" cy="64" rx="4.5" ry="2.2" fill="#EBD3A6" opacity=".9"></ellipse></g><g transform="rotate(161 70 44)"><ellipse cx="70" cy="44" rx="4.5" ry="2.2" fill="#EBD3A6" opacity=".9"></ellipse></g></svg>