<svg xmlns="http://www.w3.org/2000/svg" viewBox="0 0 128 128" width="128" height="128"><ellipse cx="64" cy="76.24" rx="52" ry="49.4" fill="#04060A" opacity=".5"></ellipse><circle cx="64" cy="64" r="52" fill="#4E3B2B"></circle><path d="M29.439999999999998 34.24 A48 48 0 0 1 73.6 18.400000000000006" fill="none" stroke="#634B37" stroke-width="3" stroke-linecap="round" opacity=".6"></path><path d="M26 50 C50 44 80 44 102 50" fill="none" stroke="#3B2C20" stroke-width="2" stroke-linecap="round" opacity=".5"></path><path d="M24 66 C48 60 84 60 104 66" fill="none" stroke="#3B2C20" stroke-width="2" stroke-linecap="round" opacity=".5"></path><path d="M30 82 C52 76 78 76 98 82" fill="none" stroke="#3B2C20" stroke-width="2" stroke-linecap="round" opacity=".5"></path><circle cx="64" cy="68" r="32" fill="#B4762F"></circle><circle cx="64" cy="64" r="32" fill="#DFA34F"></circle><ellipse cx="52" cy="52" rx="4" ry="2.6" fill="#F7E7C0"></ellipse><ellipse cx="70" cy="48" rx="4" ry="2.6" fill="#F7E7C0"></ellipse><ellipse cx="78" cy="62" rx="4" ry="2.6" fill="#F7E7C0"></ellipse><ellipse cx="56" cy="70" rx="4" ry="2.6" fill="#F7E7C0"></ellipse><ellipse cx="70" cy="76" rx="4" ry="2.6" fill="#F7E7C0"></ellipse><ellipse cx="46" cy="64" rx="4" ry="2.6" fill="#F7E7C0"></ellipse><path d="M34 76 C46 88 82 88 94 76" fill="none" stroke="#5FA24B" stroke-width="5" stroke-linecap="round" opacity=".95"></path><path d="M32 70 C44 80 84 80 96 70" fill="none" stroke="#C4523C" stroke-width="4" stroke-linecap="round" opacity=".9"></path></svg>