<svg xmlns="http://www.w3.org/2000/svg" viewBox="0 0 128 128" width="128" height="128"><ellipse cx="64" cy="76.24" rx="52" ry="49.4" fill="#04060A" opacity=".5"></ellipse><circle cx="64" cy="64" r="52" fill="#232937"></circle><path d="M29.439999999999998 34.24 A48 48 0 0 1 73.6 18.400000000000006" fill="none" stroke="#4A5772" stroke-width="3" stroke-linecap="round" opacity=".55"></path><circle cx="64" cy="64" r="39" fill="#2C3446"></circle><path d="M52.9 98.78 A37 37 0 0 0 95.45 82.5" fill="none" stroke="#141822" stroke-width="3" stroke-linecap="round" opacity=".7"></path><g transform="rotate(-30 42 50)"><rect x="26" y="45" width="32" height="10" rx="4" fill="#C89238"></rect><rect x="28" y="47" width="28" height="5" rx="2.5" fill="#EFBF60"></rect></g><g transform="rotate(5 58 44)"><rect x="42" y="39" width="32" height="10" rx="4" fill="#C89238"></rect><rect x="44" y="41" width="28" height="5" rx="2.5" fill="#EFBF60"></rect></g><g transform="rotate(-50 76 50)"><rect x="60" y="45" width="32" height="10" rx="4" fill="#C89238"></rect><rect x="62" y="47" width="28" height="5" rx="2.5" fill="#EFBF60"></rect></g><g transform="rotate(25 48 64)"><rect x="32" y="59" width="32" height="10" rx="4" fill="#C89238"></rect><rect x="34" y="61" width="28" height="5" rx="2.5" fill="#EFBF60"></rect></g><g transform="rotate(-10 66 60)"><rect x="50" y="55" width="32" height="10" rx="4" fill="#C89238"></rect><rect x="52" y="57" width="28" height="5" rx="2.5" fill="#EFBF60"></rect></g><g transform="rotate(40 84 64)"><rect x="68" y="59" width="32" height="10" rx="4" fill="#C89238"></rect><rect x="70" y="61" width="28" height="5" rx="2.5" fill="#EFBF60"></rect></g><g transform="rotate(-20 52 80)"><rect x="36" y="75" width="32" height="10" rx="4" fill="#C89238"></rect><rect x="38" y="77" width="28" height="5" rx="2.5" fill="#EFBF60"></rect></g><g transform="rotate(15 72 80)"><rect x="56" y="75" width="32" height="10" rx="4" fill="#C89238"></rect><rect x="58" y="77" width="28" height="5" rx="2.5" fill="#EFBF60"></rect></g><g transform="rotate(-40 62 90)"><rect x="46" y="85" width="32" height="10" rx="4" fill="#C89238"></rect><rect x="48" y="87" width="28" height="5" rx="2.5" fill="#EFBF60"></rect></g><circle cx="96" cy="44" r="12" fill="#C4392C"></circle><circle cx="96" cy="44" r="9" fill="#E04E3A"></circle></svg>