<svg xmlns="http://www.w3.org/2000/svg" viewBox="0 0 128 128" width="128" height="128"><ellipse cx="64" cy="76.24" rx="52" ry="49.4" fill="#04060A" opacity=".5"></ellipse><circle cx="64" cy="64" r="52" fill="#4E3B2B"></circle><path d="M29.439999999999998 34.24 A48 48 0 0 1 73.6 18.400000000000006" fill="none" stroke="#634B37" stroke-width="3" stroke-linecap="round" opacity=".6"></path><path d="M26 50 C50 44 80 44 102 50" fill="none" stroke="#3B2C20" stroke-width="2" stroke-linecap="round" opacity=".5"></path><path d="M24 66 C48 60 84 60 104 66" fill="none" stroke="#3B2C20" stroke-width="2" stroke-linecap="round" opacity=".5"></path><path d="M30 82 C52 76 78 76 98 82" fill="none" stroke="#3B2C20" stroke-width="2" stroke-linecap="round" opacity=".5"></path><circle cx="64" cy="68" r="36" fill="#C08A3E"></circle><circle cx="64" cy="64" r="36" fill="#E4B268"></circle><circle cx="64" cy="64" r="30" fill="#EFC96A"></circle><circle cx="64" cy="64" r="29" fill="#E8A93A" opacity=".35"></circle><circle cx="52" cy="50" r="7" fill="#B4392C"></circle><circle cx="50" cy="48" r="3" fill="#CE5A46" opacity=".7"></circle><circle cx="76" cy="52" r="7" fill="#B4392C"></circle><circle cx="74" cy="50" r="3" fill="#CE5A46" opacity=".7"></circle><circle cx="46" cy="72" r="7" fill="#B4392C"></circle><circle cx="44" cy="70" r="3" fill="#CE5A46" opacity=".7"></circle><circle cx="70" cy="76" r="7" fill="#B4392C"></circle><circle cx="68" cy="74" r="3" fill="#CE5A46" opacity=".7"></circle><circle cx="84" cy="66" r="7" fill="#B4392C"></circle><circle cx="82" cy="64" r="3" fill="#CE5A46" opacity=".7"></circle><path d="M64 64 L93 64" fill="none" stroke="#C9A24E" stroke-width="1.6" stroke-linecap="round" opacity=".6"></path><path d="M64 64 L72.96149283687348 91.58063897255946" fill="none" stroke="#C9A24E" stroke-width="1.6" stroke-linecap="round" opacity=".6"></path><path d="M64 64 L40.538507163126525 81.04577231648173" fill="none" stroke="#C9A24E" stroke-width="1.6" stroke-linecap="round" opacity=".6"></path><path d="M64 64 L40.538507163126525 46.95422768351828" fill="none" stroke="#C9A24E" stroke-width="1.6" stroke-linecap="round" opacity=".6"></path><path d="M64 64 L72.96149283687348 36.419361027440544" fill="none" stroke="#C9A24E" stroke-width="1.6" stroke-linecap="round" opacity=".6"></path></svg>