<svg xmlns="http://www.w3.org/2000/svg" viewBox="0 0 128 128" width="128" height="128"><ellipse cx="64" cy="76.24" rx="52" ry="49.4" fill="#04060A" opacity=".5"></ellipse><circle cx="64" cy="64" r="52" fill="#2A3142"></circle><path d="M29.439999999999998 34.24 A48 48 0 0 1 73.6 18.400000000000006" fill="none" stroke="#4A5772" stroke-width="3" stroke-linecap="round" opacity=".5"></path><circle cx="64" cy="64" r="43" fill="#171C27"></circle><circle cx="64" cy="64" r="41" fill="#20263a"></circle><path d="M52 101.6 A40 40 0 0 0 98 84" fill="none" stroke="#000" stroke-width="3" stroke-linecap="round" opacity=".18"></path><path d="M35.92 39.82 A39 39 0 0 1 71.8 26.950000000000003" fill="none" stroke="#FFF" stroke-width="2.5" stroke-linecap="round" opacity=".10"></path><circle cx="42" cy="50" r="11" fill="#6B9B3B"></circle><circle cx="42" cy="50" r="10" fill="#8CBE55"></circle><circle cx="42" cy="50" r="6" fill="#DFEBC6"></circle><circle cx="38" cy="66" r="11" fill="#6B9B3B"></circle><circle cx="38" cy="66" r="10" fill="#8CBE55"></circle><circle cx="38" cy="66" r="6" fill="#DFEBC6"></circle><circle cx="44" cy="82" r="11" fill="#6B9B3B"></circle><circle cx="44" cy="82" r="10" fill="#8CBE55"></circle><circle cx="44" cy="82" r="6" fill="#DFEBC6"></circle><g transform="rotate(20 70 48)"><path d="M56 54 c2-12 12-18 24-16 c-2 12-10 18-24 16z" fill="#D64B3B"></path><path d="M62 50 L76 42" fill="none" stroke="#F2CDBE" stroke-width="1.8" stroke-linecap="round"></path></g><g transform="rotate(-15 80 66)"><path d="M66 72 c2-12 12-18 24-16 c-2 12-10 18-24 16z" fill="#D64B3B"></path><path d="M72 68 L86 60" fill="none" stroke="#F2CDBE" stroke-width="1.8" stroke-linecap="round"></path></g><g transform="rotate(10 66 82)"><path d="M52 88 c2-12 12-18 24-16 c-2 12-10 18-24 16z" fill="#D64B3B"></path><path d="M58 84 L72 76" fill="none" stroke="#F2CDBE" stroke-width="1.8" stroke-linecap="round"></path></g><circle cx="58" cy="64" r="7" fill="#F0EAE0"></circle><circle cx="58" cy="64" r="3.4" fill="#20263a"></circle><g transform="rotate(-25 58 44)"><path d="M58 44 c3.5 -4.8999999999999995 9.799999999999999 -4.8999999999999995 12.6 -1.0499999999999998 c-3.5 4.199999999999999 -9.799999999999999 4.199999999999999 -12.6 1.0499999999999998z" fill="#5FA24B"></path><path d="M58 44 L69.9 42.95" fill="none" stroke="#457A37" stroke-width="1" stroke-linecap="round"></path></g></svg>