<svg xmlns="http://www.w3.org/2000/svg" viewBox="0 0 128 128" width="128" height="128"><ellipse cx="64" cy="76.24" rx="52" ry="49.4" fill="#04060A" opacity=".5"></ellipse><circle cx="64" cy="64" r="52" fill="#4E3B2B"></circle><path d="M29.439999999999998 34.24 A48 48 0 0 1 73.6 18.400000000000006" fill="none" stroke="#634B37" stroke-width="3" stroke-linecap="round" opacity=".6"></path><path d="M26 50 C50 44 80 44 102 50" fill="none" stroke="#3B2C20" stroke-width="2" stroke-linecap="round" opacity=".5"></path><path d="M24 66 C48 60 84 60 104 66" fill="none" stroke="#3B2C20" stroke-width="2" stroke-linecap="round" opacity=".5"></path><path d="M30 82 C52 76 78 76 98 82" fill="none" stroke="#3B2C20" stroke-width="2" stroke-linecap="round" opacity=".5"></path><g transform="rotate(-14 48 50)"><path d="M22 68 L22 32 L74 68z" fill="#C89A52"></path><path d="M27 39 L67 66" fill="none" stroke="#5FA24B" stroke-width="5" stroke-linecap="round" opacity=".95"></path><path d="M26 44 L62 68" fill="none" stroke="#D64B3B" stroke-width="4.5" stroke-linecap="round" opacity=".95"></path><path d="M25 65 L25 36 L67 65z" fill="#EFD09A"></path></g><g transform="rotate(12 76 78)"><path d="M50 96 L50 60 L102 96z" fill="#C89A52"></path><path d="M55 67 L95 94" fill="none" stroke="#5FA24B" stroke-width="5" stroke-linecap="round" opacity=".95"></path><path d="M54 72 L90 96" fill="none" stroke="#D64B3B" stroke-width="4.5" stroke-linecap="round" opacity=".95"></path><path d="M53 93 L53 64 L95 93z" fill="#EFD09A"></path></g></svg>