<svg xmlns="http://www.w3.org/2000/svg" viewBox="0 0 128 128" width="128" height="128"><ellipse cx="64" cy="75.04" rx="42" ry="39.9" fill="#04060A" opacity=".5"></ellipse><circle cx="64" cy="64" r="42" fill="#3A4258"></circle><path d="M36.64 40.44 A38 38 0 0 1 71.6 27.9" fill="none" stroke="#6D7A96" stroke-width="3" stroke-linecap="round" opacity=".7"></path><circle cx="64" cy="64" r="37" fill="#232B3E"></circle><circle cx="64" cy="64" r="34" fill="#C4536E"></circle><path d="M40.96 44.16 A32 32 0 0 1 70.4 33.6" fill="none" stroke="#FFF" stroke-width="3" stroke-linecap="round" opacity=".16"></path><circle cx="64" cy="64" r="34" fill="#CE5A76"></circle><ellipse cx="54" cy="54" rx="11" ry="6" fill="#E08A9E" opacity=".5"></ellipse><g transform="rotate(20 88 46)"><rect x="82" y="26" width="9" height="44" rx="4.5" fill="#EFE4C8"></rect></g><circle cx="58" cy="74" r="7" fill="#8E2A45"></circle><g transform="rotate(-25 70 60)"><path d="M70 60 c4 -5.6000000000000005 11.200000000000001 -5.6000000000000005 14.4 -1.2000000000000002 c-4 4.800000000000001 -11.200000000000001 4.800000000000001 -14.4 1.2000000000000002z" fill="#5FA24B"></path><path d="M70 60 L83.6 58.8" fill="none" stroke="#457A37" stroke-width="1" stroke-linecap="round"></path></g></svg>