<svg xmlns="http://www.w3.org/2000/svg" viewBox="0 0 128 128" width="128" height="128"><ellipse cx="64" cy="76.24" rx="52" ry="49.4" fill="#04060A" opacity=".5"></ellipse><circle cx="64" cy="64" r="52" fill="#232937"></circle><path d="M29.439999999999998 34.24 A48 48 0 0 1 73.6 18.400000000000006" fill="none" stroke="#4A5772" stroke-width="3" stroke-linecap="round" opacity=".55"></path><circle cx="64" cy="64" r="39" fill="#2C3446"></circle><path d="M52.9 98.78 A37 37 0 0 0 95.45 82.5" fill="none" stroke="#141822" stroke-width="3" stroke-linecap="round" opacity=".7"></path><circle cx="46" cy="48" r="11" fill="#E4DBD0"></circle><circle cx="46" cy="48" r="6" fill="#2C3446"></circle><circle cx="74" cy="46" r="11" fill="#E4DBD0"></circle><circle cx="74" cy="46" r="6" fill="#2C3446"></circle><circle cx="52" cy="74" r="11" fill="#E4DBD0"></circle><circle cx="52" cy="74" r="6" fill="#2C3446"></circle><circle cx="80" cy="72" r="11" fill="#E4DBD0"></circle><circle cx="80" cy="72" r="6" fill="#2C3446"></circle><path d="M34 84 c8-10 22-10 28 0 c-6 4-10 10-14 10 c-4 0-8-6-14-10z" fill="#EFE7DC"></path><g transform="rotate(-20 96 58)"><path d="M87.75 58 a8.25 8.25 0 0 1 16.5 0z" fill="#F2D66A"></path><path d="M90 57 a6 6 0 0 1 12 0z" fill="#F8EBAE"></path><path d="M96 57 L96 52" fill="none" stroke="#E3C55A" stroke-width="1.4" stroke-linecap="round"></path><path d="M92.25 57 L93.75 53.5" fill="none" stroke="#E3C55A" stroke-width="1.2" stroke-linecap="round"></path><path d="M99.75 57 L98.25 53.5" fill="none" stroke="#E3C55A" stroke-width="1.2" stroke-linecap="round"></path></g><g transform="rotate(-25 64 60)"><path d="M64 60 c3.5 -4.8999999999999995 9.799999999999999 -4.8999999999999995 12.6 -1.0499999999999998 c-3.5 4.199999999999999 -9.799999999999999 4.199999999999999 -12.6 1.0499999999999998z" fill="#5FA24B"></path><path d="M64 60 L75.9 58.95" fill="none" stroke="#457A37" stroke-width="1" stroke-linecap="round"></path></g></svg>