<svg xmlns="http://www.w3.org/2000/svg" viewBox="0 0 128 128" width="128" height="128"><ellipse cx="64" cy="76.24" rx="52" ry="49.4" fill="#04060A" opacity=".5"></ellipse><circle cx="64" cy="64" r="52" fill="#232937"></circle><path d="M29.439999999999998 34.24 A48 48 0 0 1 73.6 18.400000000000006" fill="none" stroke="#4A5772" stroke-width="3" stroke-linecap="round" opacity=".55"></path><circle cx="64" cy="64" r="39" fill="#2C3446"></circle><path d="M52.9 98.78 A37 37 0 0 0 95.45 82.5" fill="none" stroke="#141822" stroke-width="3" stroke-linecap="round" opacity=".7"></path><g transform="rotate(-12 64 64)"><path d="M26 64 C40 44 78 44 92 64 C78 84 40 84 26 64z" fill="#9CA6B4"></path><path d="M30 64 C42 50 76 50 88 64 C76 78 42 78 30 64z" fill="#C0AEB0"></path><path d="M92 64 L106 52 L106 76z" fill="#8A94A4"></path><circle cx="38" cy="60" r="3.4" fill="#2C303C"></circle><circle cx="52" cy="58" r="2.6" fill="#EE9A78"></circle><circle cx="62" cy="66" r="2.6" fill="#EE9A78"></circle><circle cx="72" cy="58" r="2.6" fill="#EE9A78"></circle><circle cx="58" cy="70" r="2.6" fill="#EE9A78"></circle></g><g transform="rotate(10 46 92)"><path d="M38.3 92 a7.699999999999999 7.699999999999999 0 0 1 15.399999999999999 0z" fill="#F2D66A"></path><path d="M40.4 91 a5.6 5.6 0 0 1 11.2 0z" fill="#F8EBAE"></path><path d="M46 91 L46 86.4" fill="none" stroke="#E3C55A" stroke-width="1.4" stroke-linecap="round"></path><path d="M42.5 91 L43.9 87.8" fill="none" stroke="#E3C55A" stroke-width="1.2" stroke-linecap="round"></path><path d="M49.5 91 L48.1 87.8" fill="none" stroke="#E3C55A" stroke-width="1.2" stroke-linecap="round"></path></g></svg>